<svg id="Layer_1" data-name="Layer 1" xmlns="http://www.w3.org/2000/svg" viewBox="0 0 290.06 375.23"><defs><style>.cls-9{fill:#fff}.cls-2{fill:#ddd}.cls-10,.cls-11,.cls-7{fill:none}.cls-10,.cls-11,.cls-7,.cls-9{stroke:#232323;stroke-linecap:round;stroke-linejoin:round;stroke-width:5px}.cls-8{fill:#232323}.cls-10{stroke-dasharray:13.39 13.39}.cls-11{stroke-dasharray:13.92 13.92}</style></defs><path d="M228.11 95.47l-56.06 1.12s-36.63 12-36.35 13.7 4.19 43.07 4.19 43.07l-1.68 41.83-17.48 18.06L107 242.71 90.89 290.1l-2.82 28.36 5.46 17.35 8.88 12 12 7.85 8.14 4.36 14 3.9 9.79 1.52 1.17-5.49-5.9-3.22-13.7-8.25-6-5.58-7.36-9-6.29-8.29-4-9-1.44-8.28.84-4.1 3 1 4.42 4.84 12.36 10.63 12.56 7.89 8.83 4.87 8.28 2.82 8.61 2.79 12.61 3.82h10.06l6.58-1.3 3.56-1.68-1.57-6.31 5-.82 4.2.94 4.72 2.87 3 3.79 4.12.62 2.9-3.87 3.67-6.34 2.66-8.48 3.78 3 1.8 7.63 2.11 4.7 5.45 2.31 5.44-4.56 2.86-1.84 5.13 2.11 14.45 2h13l1.39-6.45-5.12-8.11-2.22-7.06 2.32-31 .55-33 1.09-10.36.93-13.85 1.12-15.52 14.92-.26 7.95-17.74 2.23-24.21-10.18-26.29v-11.7l-54.84-29.37z" transform="translate(-85 -48.18)" fill="#fff"/><path class="cls-2" d="M59.21 184.53l-2.16.41-22.44 4.24 5.44-13.49 12.66 6.74"/><path d="M290.78 153.43c-58.62 7.63-47.32-45.56-63.25-45.14-25.51.68 3.84 59.84-74.21 60.22l-.57 31-4.82 27.19-2.88 5.3-8.69-2.49-11.88-8.51-13.36-17-5.87-10.71-7.83-15v-12.84s7.45-36 6.8-36.83 3.27-12.53 3.27-12.53l5-11.71 9.27-16.1L129.11 77l13.46-10.87 12.31-9.46 8.79-1.8 15.45-4.17h18.08l23.65 3.46 10.66 4.19 9.21 2.32 23.18 12 13.29 16.92 10.38 11.3 9.33 13.87 7.32 20.32 5.61 27.41 1.24 22.18-5.51 24.1-6.56 12.66-6.48 7.48-4.1 3.33-5.89.47-4.64-5.84-1.68-8 1.63-16.45 5.18-5.63 5.73-11.62 2.51-25.17s1.16-6.79-.48-6.57z" transform="translate(-85 -48.18)" fill="#fe8d3e"/><path d="M113.6 207.11l-12.74 16.68-6.43 19.9-4.76 25.69 6.63 21.95 9.18 13.38s-3.36-16.45 6.85-46.52S127.86 224 127.86 224l-14.26-16.89" transform="translate(-85 -48.18)" fill="#11253e"/><path d="M166.07 54.06c2.34-.67 106.64 9.91 132.37 70.45l-2.1-12.09-20.13-28.67-16.78-12-24.08-13.27-31.11-7.8h-25.12l-8.48 1.12" transform="translate(-85 -48.18)" fill="#ffaf78"/><path d="M107.23 116.78s1 83.86 42.43 100.14l-3.73 15.17-16.52-6.84-19.23-22.87-8.26-16.33-4.49-19.59 2.3-22.8 4.68-17.19 2.82-9.69m181.7 67.02s1.59 37.38 7.27 42.51l-5.5 6.4-5.59 2.74-4.19-5.32-1.59-4.84-1.68-4-.95-7.29 2.06-11.13 3.62-5.09 2.45-4.65" transform="translate(-85 -48.18)" fill="#e86e1c"/><path class="cls-2" d="M17.78 254.45l-.22 11.77-5.13 26.71-10.83-17.3.9-11.5.64-14.54 1.54-9.93 2.94-3.59 4.81 9.52 2.87 7.63"/><path class="cls-2" d="M118.27 318.78s49.2 25.74 74 18.56v5.87l-5.27 2.05-11.65-2.05-12.83-2.1-9.66-3.06c-.41-.13-18.06-7.15-18.34-7.24s-9.88-5.72-9.88-5.72m64.43 6.32l12.74-2.18s9.94 8.85 15.06 3.35 4.22-8.13 4.22-8.13l7.53 6.36s7.74 7.37 14.17.65 22 7.42 32.16-.56l-.19 8-29.92-4.29-3.45 5.13s-3.17.2-3.44.32-8.68-5.54-8.68-5.54l-3.14-4.46-2.92-2.34-3.35 8.66-4.86 4.55-2.36 3-5.87-6.53-7.28-2.33-6.26 1.24-4.2-4.93" transform="translate(-85 -48.18)"/><path class="cls-7" d="M282.08 123.12s23.45 48.94-3.21 79.14c0 0-3.92 21-4.76 54.81s-1.4 36.92-4.75 59.57c0 0 6.8 9.88 8 18.74s-34.58 0-34.58 0" transform="translate(-85 -48.18)"/><path class="cls-7" d="M250.34 307s-4.29 31.88-13.7 33.47-13.43-20.7-13.43-20.7m1.49-15.06s-4.19 32.63-11.28 37.94-17-28.8-17-28.8m7.22 21.25a46.38 46.38 0 01-9.73 0" transform="translate(-85 -48.18)"/><path class="cls-7" d="M188.53 309s-.74 15.66-3.35 19.2c0 0 12.4 8.48 7.64 14.45s-59.38-1.21-88.46-37.94-2.24-85.3 8.2-97.6" transform="translate(-85 -48.18)"/><path class="cls-7" d="M150.5 120.32s9.37 92.43-5.45 111.72c0 0-25 .49-45.91-52.71-7.9-20.14 9.69-129.48 91.35-128.65s113.62 61.78 120.26 118.58c.88 7.55 1.86 49.59-25.92 65.25 0 0-6.4-3.43-8.42-13.92" transform="translate(-85 -48.18)"/><path class="cls-7" d="M227.76 165.45s-2.18-21.84 6.94-25.19c0 0 9 2.46 6.2 24.38" transform="translate(-85 -48.18)"/><ellipse class="cls-8" cx="147.54" cy="76.34" rx="6.25" ry="4.1"/><ellipse class="cls-9" cx="103.82" cy="78.29" rx="24.42" ry="26.38"/><ellipse class="cls-9" cx="262.95" cy="123.12" rx="19.2" ry="23.53" transform="rotate(-7.7 -137.385 730.607)"/><ellipse class="cls-8" cx="113.88" cy="73.45" rx="10.07" ry="17.25"/><ellipse class="cls-8" cx="256.78" cy="118.55" rx="9.12" ry="17.25" transform="rotate(-3.55 -563.353 1465.757)"/><path class="cls-7" d="M101.3 300.5c-2.12 25.15 21.14 48.3 33.07 54.08s17.34 13.05 17.34 13.05c-91.35-6.89-58.44-85.09-58.44-85.09m222.81 72.82l5.85-1.34a51.55 51.55 0 011.33-5.84" transform="translate(-85 -48.18)"/><path class="cls-10" d="M328.38 335.84c4.32-7.43 11.32-14.37 22.45-14.63 19.06-.44 21.64 21.38 12.5 34" transform="translate(-85 -48.18)"/><path class="cls-7" d="M358.67 360a19.76 19.76 0 01-5.27 2.82l.5 1.24a22.65 22.65 0 015.92.91" transform="translate(-85 -48.18)"/><path class="cls-11" d="M370.69 373.1c4.35 7.51 1.51 17.4-12.76 20.46-9 1.94-15.28.89-19.54-1.14" transform="translate(-85 -48.18)"/><path class="cls-7" d="M332.85 388.3a14.62 14.62 0 01-3.09-5.1l-5.85 1.33" transform="translate(-85 -48.18)"/><path stroke-dasharray="14.89 14.89" stroke="#232323" stroke-linecap="round" stroke-linejoin="round" stroke-width="5" fill="none" d="M224.4 339.66l-21.78 4.97"/><path class="cls-7" d="M280.36 394.46l-5.85 1.33a14.53 14.53 0 010 6" transform="translate(-85 -48.18)"/><path class="cls-11" d="M267.27 413.28a37.77 37.77 0 01-11.38 6c-17.28 6.07-24.81-6.43-20.27-17.57" transform="translate(-85 -48.18)"/><path class="cls-7" d="M239.34 395.89a23.37 23.37 0 014.58-3.86l-.22-1.33a19.43 19.43 0 01-6 .35" transform="translate(-85 -48.18)"/><path class="cls-10" d="M225.49 386.06c-10.69-8.12-15.43-24-1.29-32.16 12.24-7.11 24.42-1.52 32.44 4.37" transform="translate(-85 -48.18)"/><path class="cls-7" d="M261.79 362.52a50.64 50.64 0 014.18 4.29l5.85-1.33" transform="translate(-85 -48.18)"/><path stroke-dasharray="15.14 15.14" stroke="#232323" stroke-linecap="round" stroke-linejoin="round" stroke-width="5" fill="none" d="M201.58 313.93l22.13-5.06"/><path class="cls-8" d="M278.79 383.66l-5.68 1.25a.91.91 0 01-1.09-.69l-.28-1.28a.94.94 0 01.07-.6l4.83-9.75a.91.91 0 01.62-.49l3.08-.68a.9.9 0 011.08.7l1.54 7a.9.9 0 001.08.69.92.92 0 011.09.7l.18.82a.91.91 0 01-.69 1.09.9.9 0 00-.7 1.08l.14.61a.92.92 0 01-.7 1.08l-2.26.5a.91.91 0 01-1.1-.69l-.13-.61a.91.91 0 00-1.08-.73zm-1.27-2.45l.7-.15a.91.91 0 00.69-1.09l-.44-2c-.17-.77-.31-1.79-.32-1.83s-.42 1.17-.69 1.76l-1 2.05a.91.91 0 001.06 1.26zm13.67-4.66l-.13-.61c-1-4.62 2-7.49 5.82-8.33s7.76.49 8.78 5.11l.14.61c1 4.64-2 7.51-5.82 8.35s-7.77-.49-8.79-5.13zm10.12-2.28l-.11-.52c-.61-2.77-2.08-3.67-3.7-3.32s-2.57 1.8-2 4.57l.12.52c.61 2.77 2.08 3.69 3.7 3.33s2.6-1.85 1.99-4.58zm18.54.35l-5.69 1.25a.9.9 0 01-1.08-.69l-.29-1.29a.9.9 0 01.08-.6l4.82-9.75a.94.94 0 01.62-.48l3.08-.68a.9.9 0 011.08.69l1.54 7a.9.9 0 001.08.69.91.91 0 011.09.69l.18.83a.9.9 0 01-.69 1.08.93.93 0 00-.7 1.09l.14.6a.91.91 0 01-.7 1.09l-2.26.5a.91.91 0 01-1.08-.7l-.14-.6a.9.9 0 00-1.08-.72zm-1.28-2.45l.7-.16a.92.92 0 00.7-1.08l-.45-2c-.17-.77-.31-1.8-.32-1.84s-.42 1.18-.68 1.76l-1 2.06a.91.91 0 001.05 1.26z" transform="translate(-85 -48.18)"/><path class="cls-7" d="M116.53 339.79s-15.85-6.17-7.76 4.73c0 0-10.88-7.58-6.48 5.34m84.89-256.77s19.82.5 21.82-22.63m-9.54.26s1 6.65-4.16 10.89m66.48 10.45s-19.85.81-21.75-18.34m9.53.03a9.21 9.21 0 004.13 8.94" transform="translate(-85 -48.18)"/></svg>